solid CATIA STL
  facet normal  0.000000e+000 -1.000000e+000  0.000000e+000
    outer loop
      vertex  4.017315e+000 -3.800000e+001  1.569635e+001
      vertex  4.017315e+000 -3.800000e+001  1.596345e+000
      vertex  1.411732e+001 -3.800000e+001  1.569635e+001
    endloop
  endfacet
  facet normal  0.000000e+000 -1.000000e+000  -0.000000e+000
    outer loop
      vertex  1.411732e+001 -3.800000e+001  1.569635e+001
      vertex  4.017315e+000 -3.800000e+001  1.596345e+000
      vertex  1.411732e+001 -3.800000e+001  1.596345e+000
    endloop
  endfacet
  facet normal  0.000000e+000  0.000000e+000 -1.000000e+000
    outer loop
      vertex  1.356732e+001 -3.700000e+001  1.514635e+001
      vertex  4.567315e+000 -3.700000e+001  1.514635e+001
      vertex  1.356732e+001 -3.350000e+001  1.514635e+001
    endloop
  endfacet
  facet normal  -0.000000e+000  0.000000e+000 -1.000000e+000
    outer loop
      vertex  1.356732e+001 -3.350000e+001  1.514635e+001
      vertex  4.567315e+000 -3.700000e+001  1.514635e+001
      vertex  4.567315e+000 -3.350000e+001  1.514635e+001
    endloop
  endfacet
  facet normal  1.000000e+000  0.000000e+000  0.000000e+000
    outer loop
      vertex  4.567315e+000 -3.700000e+001  1.514635e+001
      vertex  4.567315e+000 -3.700000e+001  2.146345e+000
      vertex  4.567315e+000 -3.350000e+001  1.514635e+001
    endloop
  endfacet
  facet normal  1.000000e+000  0.000000e+000  0.000000e+000
    outer loop
      vertex  4.567315e+000 -3.350000e+001  1.514635e+001
      vertex  4.567315e+000 -3.700000e+001  2.146345e+000
      vertex  4.567315e+000 -3.350000e+001  2.146345e+000
    endloop
  endfacet
  facet normal  0.000000e+000  0.000000e+000  1.000000e+000
    outer loop
      vertex  4.567315e+000 -3.700000e+001  2.146345e+000
      vertex  1.356732e+001 -3.700000e+001  2.146345e+000
      vertex  4.567315e+000 -3.350000e+001  2.146345e+000
    endloop
  endfacet
  facet normal  -0.000000e+000  0.000000e+000  1.000000e+000
    outer loop
      vertex  4.567315e+000 -3.350000e+001  2.146345e+000
      vertex  1.356732e+001 -3.700000e+001  2.146345e+000
      vertex  1.356732e+001 -3.350000e+001  2.146345e+000
    endloop
  endfacet
  facet normal -1.000000e+000  0.000000e+000  0.000000e+000
    outer loop
      vertex  1.356732e+001 -3.700000e+001  2.146345e+000
      vertex  1.356732e+001 -3.700000e+001  1.514635e+001
      vertex  1.356732e+001 -3.350000e+001  2.146345e+000
    endloop
  endfacet
  facet normal -1.000000e+000  0.000000e+000  0.000000e+000
    outer loop
      vertex  1.356732e+001 -3.350000e+001  2.146345e+000
      vertex  1.356732e+001 -3.700000e+001  1.514635e+001
      vertex  1.356732e+001 -3.350000e+001  1.514635e+001
    endloop
  endfacet
  facet normal  0.000000e+000  1.000000e+000  0.000000e+000
    outer loop
      vertex  1.356732e+001 -3.700000e+001  2.146345e+000
      vertex  4.567315e+000 -3.700000e+001  2.146345e+000
      vertex  1.356732e+001 -3.700000e+001  1.514635e+001
    endloop
  endfacet
  facet normal  0.000000e+000  1.000000e+000  0.000000e+000
    outer loop
      vertex  1.356732e+001 -3.700000e+001  1.514635e+001
      vertex  4.567315e+000 -3.700000e+001  2.146345e+000
      vertex  4.567315e+000 -3.700000e+001  1.514635e+001
    endloop
  endfacet
  facet normal  0.000000e+000  1.000000e+000  0.000000e+000
    outer loop
      vertex  4.017315e+000 -3.350000e+001  1.569635e+001
      vertex  4.567315e+000 -3.350000e+001  1.514635e+001
      vertex  4.017315e+000 -3.350000e+001  1.596345e+000
    endloop
  endfacet
  facet normal  0.000000e+000  1.000000e+000  0.000000e+000
    outer loop
      vertex  4.017315e+000 -3.350000e+001  1.596345e+000
      vertex  4.567315e+000 -3.350000e+001  1.514635e+001
      vertex  4.567315e+000 -3.350000e+001  2.146345e+000
    endloop
  endfacet
  facet normal  0.000000e+000  1.000000e+000  0.000000e+000
    outer loop
      vertex  4.017315e+000 -3.350000e+001  1.596345e+000
      vertex  4.567315e+000 -3.350000e+001  2.146345e+000
      vertex  1.411732e+001 -3.350000e+001  1.596345e+000
    endloop
  endfacet
  facet normal  0.000000e+000  1.000000e+000  0.000000e+000
    outer loop
      vertex  1.411732e+001 -3.350000e+001  1.596345e+000
      vertex  4.567315e+000 -3.350000e+001  2.146345e+000
      vertex  1.356732e+001 -3.350000e+001  2.146345e+000
    endloop
  endfacet
  facet normal  -0.000000e+000  1.000000e+000  0.000000e+000
    outer loop
      vertex  1.411732e+001 -3.350000e+001  1.596345e+000
      vertex  1.356732e+001 -3.350000e+001  2.146345e+000
      vertex  1.411732e+001 -3.350000e+001  1.569635e+001
    endloop
  endfacet
  facet normal  0.000000e+000  1.000000e+000  0.000000e+000
    outer loop
      vertex  1.411732e+001 -3.350000e+001  1.569635e+001
      vertex  1.356732e+001 -3.350000e+001  2.146345e+000
      vertex  1.356732e+001 -3.350000e+001  1.514635e+001
    endloop
  endfacet
  facet normal  0.000000e+000  1.000000e+000  -0.000000e+000
    outer loop
      vertex  1.411732e+001 -3.350000e+001  1.569635e+001
      vertex  1.356732e+001 -3.350000e+001  1.514635e+001
      vertex  4.017315e+000 -3.350000e+001  1.569635e+001
    endloop
  endfacet
  facet normal  0.000000e+000  1.000000e+000  0.000000e+000
    outer loop
      vertex  4.017315e+000 -3.350000e+001  1.569635e+001
      vertex  1.356732e+001 -3.350000e+001  1.514635e+001
      vertex  4.567315e+000 -3.350000e+001  1.514635e+001
    endloop
  endfacet
  facet normal  9.999999e-001  0.000000e+000  0.000000e+000
    outer loop
      vertex  1.411732e+001 -3.800000e+001  1.596345e+000
      vertex  1.411732e+001 -3.350000e+001  1.596345e+000
      vertex  1.411732e+001 -3.800000e+001  1.569635e+001
    endloop
  endfacet
  facet normal  9.999999e-001  -0.000000e+000  0.000000e+000
    outer loop
      vertex  1.411732e+001 -3.800000e+001  1.569635e+001
      vertex  1.411732e+001 -3.350000e+001  1.596345e+000
      vertex  1.411732e+001 -3.350000e+001  1.569635e+001
    endloop
  endfacet
  facet normal  0.000000e+000  0.000000e+000  1.000000e+000
    outer loop
      vertex  1.411732e+001 -3.800000e+001  1.569635e+001
      vertex  1.411732e+001 -3.350000e+001  1.569635e+001
      vertex  4.017315e+000 -3.800000e+001  1.569635e+001
    endloop
  endfacet
  facet normal  0.000000e+000  0.000000e+000  1.000000e+000
    outer loop
      vertex  4.017315e+000 -3.800000e+001  1.569635e+001
      vertex  1.411732e+001 -3.350000e+001  1.569635e+001
      vertex  4.017315e+000 -3.350000e+001  1.569635e+001
    endloop
  endfacet
  facet normal -9.999999e-001  -0.000000e+000  0.000000e+000
    outer loop
      vertex  4.017315e+000 -3.800000e+001  1.569635e+001
      vertex  4.017315e+000 -3.350000e+001  1.569635e+001
      vertex  4.017315e+000 -3.800000e+001  1.596345e+000
    endloop
  endfacet
  facet normal -9.999999e-001  0.000000e+000  0.000000e+000
    outer loop
      vertex  4.017315e+000 -3.800000e+001  1.596345e+000
      vertex  4.017315e+000 -3.350000e+001  1.569635e+001
      vertex  4.017315e+000 -3.350000e+001  1.596345e+000
    endloop
  endfacet
  facet normal  0.000000e+000  0.000000e+000 -1.000000e+000
    outer loop
      vertex  4.017315e+000 -3.800000e+001  1.596345e+000
      vertex  4.017315e+000 -3.350000e+001  1.596345e+000
      vertex  1.411732e+001 -3.800000e+001  1.596345e+000
    endloop
  endfacet
  facet normal  0.000000e+000  0.000000e+000 -1.000000e+000
    outer loop
      vertex  1.411732e+001 -3.800000e+001  1.596345e+000
      vertex  4.017315e+000 -3.350000e+001  1.596345e+000
      vertex  1.411732e+001 -3.350000e+001  1.596345e+000
    endloop
  endfacet
endsolid CATIA STL
